<?xml version="1.0" encoding="utf-8"?>
<!-- Generator: Adobe Illustrator 28.1.0, SVG Export Plug-In . SVG Version: 6.00 Build 0)  -->
<svg version="1.1" id="Layer_1" xmlns="http://www.w3.org/2000/svg" xmlns:xlink="http://www.w3.org/1999/xlink" x="0px" y="0px"
	 viewBox="0 0 216 216" style="enable-background:new 0 0 216 216;" xml:space="preserve">
<style type="text/css">
	.st0{fill:#9F0457;}
	.st1{enable-background:new    ;}
</style>
<g>
	<path class="st0" d="M120.82,107.01c2.77-2.96,4.37-6.61,6.09-10.17c3.27-6.75,4.31-13.86,2.63-21.19
		c-1.09-4.73-3.72-8.79-6.82-12.44c-2.77-3.28-5.85-6.29-8.79-9.43c-0.68-0.73-1.26-0.74-2.01-0.04c-3.23,3.05-6.65,5.92-9.73,9.11
		c-10.09,10.48-10.8,23.37-4.6,35.5c1.83,3.59,4.22,6.81,6.88,9.83c0.23,0.26,0.45,0.52,0.61,0.85c-2.23-1.42-4.15-3.2-5.82-5.21
		c-4.11-4.97-8.04-10.17-10.34-16.2c-2.96-7.75-3.25-15.57,1.28-23.12c4.1-6.83,9.56-12.28,15.84-17.03
		c2.02-1.53,4.02-3.07,6.01-4.64c0.53-0.41,0.99-0.51,1.56-0.13c7.91,5.2,15.25,10.97,20.2,19.28c5.32,8.92,5.84,17.95,0.84,27.17
		c-3.25,6-6.98,11.65-11.85,16.49c-0.56,0.55-1.18,1.05-1.77,1.57C120.98,107.14,120.9,107.08,120.82,107.01z"/>
	<path class="st0" d="M146.08,120.91c3.15-0.41,6.34-0.63,9.44-1.26c10.31-2.12,17.94-7.95,23.08-17.1
		c1.06-1.89,2.16-3.75,3.22-5.64c0.23-0.42,0.36-0.89,0.6-1.5c-0.35,0.07-0.51,0.07-0.61,0.13c-5.56,3.69-11.83,5.42-18.28,6.69
		c-5.73,1.12-11.54,1.44-17.35,1.69c-7.62,0.34-14.7,2.43-21.33,6.17c-1.06,0.6-2.11,1.21-3.35,1.65c0.16-0.24,0.3-0.49,0.47-0.72
		c4.25-5.78,9.89-9.78,16.17-13.13c5.89-3.14,12.2-4.37,18.69-5c5.39-0.52,10.81-0.79,16.2-1.33c7.78-0.78,14.29-4.08,19.35-10.12
		c0.07-0.08,0.18-0.12,0.43-0.28c0.11,0.36,0.29,0.66,0.27,0.95c-0.7,14.53-6.7,26.2-18.83,34.46c-6.42,4.37-13.65,5.93-21.33,5.48
		c-2.05-0.12-4.08-0.48-6.12-0.74c-0.27-0.03-0.53-0.16-0.79-0.24C146.03,121.01,146.06,120.96,146.08,120.91z"/>
	<path class="st0" d="M102.57,112.72c-0.33-0.2-0.67-0.38-0.99-0.6c-7.16-4.95-15.02-7.95-23.74-8.61
		c-5.73-0.43-11.46-0.82-17.18-1.36c-6.24-0.59-11.86-2.98-17.19-6.16c-0.77-0.46-1.51-0.95-2.51-1.58
		c0.03,0.53-0.06,0.88,0.07,1.13c5.28,10.35,12.03,19.17,23.76,22.8c4.72,1.46,9.6,1.61,14.47,1.81c0.54,0.02,1.08,0,1.82,0
		c-9.78,3.06-25.13,2.86-36.62-8.12c-5.37-5.13-8.97-11.23-10.47-18.55c-0.79-3.83-0.99-9.22-0.35-10.66
		c0.87,0.84,1.74,1.64,2.58,2.47c4.02,4,8.94,5.8,14.54,6.06c9.43,0.44,18.76,1.67,28.04,3.46c6.32,1.22,11.35,4.53,15.81,8.89
		c2.71,2.65,5.2,5.52,7.78,8.3c0.14,0.15,0.24,0.34,0.36,0.51C102.69,112.59,102.63,112.65,102.57,112.72z"/>
	<path class="st0" d="M113.91,118.9c0.39,0.53,0.74,0.94,1.03,1.39c2.88,4.31,6.04,8.45,11.04,10.33
		c5.43,2.04,10.86,1.33,16.07-1.13c0.18-0.08,0.32-0.25,0.78-0.64c-9.83-1.78-17.66-6.74-24.7-13.13c0.04-0.11,0.08-0.22,0.12-0.33
		c0.37,0.11,0.76,0.19,1.12,0.34c4.27,1.75,8.53,3.54,12.81,5.27c5.41,2.19,10.92,4.02,16.81,4.24c2.08,0.08,4.18-0.18,6.27-0.24
		c0.46-0.01,0.93,0.18,1.39,0.28c-0.15,0.42-0.21,0.91-0.47,1.25c-1.92,2.48-3.7,5.11-5.87,7.36c-3.74,3.88-8.5,5.78-13.87,6.01
		c-2.09,0.09-4.2-0.03-6.28-0.23c-7.32-0.7-14.97-7.37-16.72-14.51C113.01,123.39,113.18,120.55,113.91,118.9z"/>
	<path class="st0" d="M109.74,119.25c0.51,2.94,0.08,5.48-1.3,7.82c-5.09,8.63-12.55,13.11-22.65,12.63
		c-5.04-0.24-9.55-2.24-13.51-5.3c-1.21-0.94-2.09-2.37-2.94-3.7c-0.82-1.27-1.41-2.68-2.08-4.04c-0.52-1.05-0.4-1.22,0.8-1.25
		c2.28-0.04,4.55-0.01,6.82-0.14c5.64-0.31,11.05-1.78,16.31-3.7c4.54-1.66,8.98-3.57,13.46-5.38c0.32-0.13,0.64-0.26,1.08-0.2
		c-0.86,0.63-1.67,1.33-2.58,1.87c-4.49,2.61-8.99,5.22-13.53,7.74c-2.8,1.55-5.92,2.03-9.06,2.37c-0.27,0.03-0.55,0.09-0.9,0.15
		c0.07,0.2,0.08,0.37,0.17,0.44c3.24,2.5,6.79,4.28,10.96,4.4c3.63,0.11,6.73-1.38,9.61-3.45c3.39-2.44,5.99-5.62,8.38-9
		C109.05,120.15,109.33,119.79,109.74,119.25z"/>
	<path class="st0" d="M128.93,49.93c0.34-0.71,0.57-1.49,1.03-2.1c2.54-3.37,5.13-6.7,7.71-10.04c0.67-0.87,1.3-0.78,2.2-0.18
		c7.19,4.79,10.21,12.13,12.24,20.03c1.35,5.27,1.73,10.62,0.11,15.95c-2.48,8.2-7.28,14.77-14.08,19.92
		c-1.04,0.78-2.13,1.49-3.21,2.22c-0.27,0.19-0.59,0.31-1.04,0.26c1.52-2,3.04-4,4.56-6c3.56-4.64,6.63-9.52,8.34-15.2
		c2.01-6.67,1.72-13.07-1.95-19.1c-1.84-3.01-3.78-5.98-5.84-8.84c-1.22-1.69-1.43-1.6-3.24-0.63c-1.15,0.61-2.29,1.24-3.41,1.89
		c-1.09,0.63-2.16,1.3-3.24,1.96C129.06,50.02,128.99,49.97,128.93,49.93z"/>
	<path class="st0" d="M89.31,95.92c-0.31-0.17-0.64-0.32-0.93-0.52c-7.51-5.26-13-12.11-15.73-20.92
		c-1.63-5.27-1.29-10.65,0.17-15.94c2.03-7.36,5.54-13.93,10.51-19.73c2.17-2.53,2.16-2.54,4.49-0.19
		c3.42,3.44,7.14,8.48,8.51,11.61c-0.6-0.26-1.05-0.42-1.45-0.65c-1.99-1.11-3.97-2.22-5.94-3.36c-0.61-0.35-1.1-0.4-1.64,0.15
		c-5.33,5.34-9.18,11.52-10.66,18.99c-1.35,6.82,0.43,12.96,4.4,18.53c2.62,3.68,5.29,7.32,7.93,10.98c0.2,0.28,0.37,0.57,0.56,0.86
		C89.45,95.79,89.38,95.85,89.31,95.92z"/>
	<path class="st0" d="M67.43,61.94c-1.89-0.77-3.46-1.54-5.1-2.04c-2.86-0.87-5.76-1.61-8.66-2.33c-1.18-0.29-1.36-0.08-1.3,1.21
		C52.8,68.54,57,76.44,64.58,82.44c3.53,2.79,7.43,5.1,11.17,7.62c0.56,0.38,1.15,0.72,1.96,1.22c-0.5,0-0.74,0.05-0.94-0.01
		c-6.24-1.91-12.38-4.09-17.5-8.29c-9.21-7.55-13.15-17.37-12.17-29.2c0.03-0.32,0.05-0.65,0.08-0.97c0.09-0.89,0.58-1.31,1.46-1.14
		c7,1.3,13.14,4.27,18.14,9.41C66.96,61.27,67.09,61.49,67.43,61.94z"/>
	<path class="st0" d="M146.57,91.4c0.4-0.22,0.8-0.47,1.21-0.67c5.21-2.55,10.06-5.7,14.56-9.34c6.73-5.44,10.24-12.56,10.58-21.22
		c0.06-1.48-0.11-1.68-1.64-1.71c-3.44-0.05-6.73,0.75-9.94,1.92c-0.57,0.21-1.13,0.42-1.7,0.63c-0.12-0.14-0.24-0.27-0.36-0.41
		c0.33-0.19,0.66-0.36,0.98-0.57c0.81-0.54,1.54-1.24,2.42-1.63c4.76-2.16,9.54-4.29,14.35-6.34c1.62-0.69,1.78-0.48,2.03,1.26
		c1.13,7.9-0.31,15.18-5.28,21.57c-3.24,4.17-7.32,7.36-11.84,10.03c-4.65,2.75-9.6,4.83-14.73,6.5c-0.19,0.06-0.39,0.08-0.58,0.11
		C146.61,91.49,146.59,91.45,146.57,91.4z"/>
	<path class="st0" d="M186.57,66.18c0.17,0.45,0.31,0.66,0.32,0.87c0.01,2.38,0.02,4.75-0.02,7.13c-0.02,1.15-0.15,2.31-0.18,3.46
		c-0.09,3.39-1.58,6-4.35,7.93c-2.72,1.9-5.78,2.81-9.05,2.93c-3.36,0.12-6.72,0.04-10.08,0.04c-0.13,0-0.26-0.04-0.73-0.12
		c0.68-0.5,1.08-0.92,1.57-1.13c8.64-3.6,14.78-10.04,20-17.54C184.84,68.63,185.65,67.5,186.57,66.18z"/>
	<path class="st0" d="M163.36,124.34c2.77-0.23,5.37-0.39,7.95-0.68c5.11-0.58,10.22-1.48,14.82-3.78c3.25-1.63,6.15-3.99,9.15-6.12
		c1.09-0.78,0.99-1.11-0.09-1.99c-1.32-1.07-2.64-2.13-3.95-3.21c-0.29-0.24-0.56-0.51-0.72-1c0.36,0.08,0.75,0.1,1.09,0.24
		c3.41,1.46,6.82,2.93,10.23,4.41c0.46,0.2,0.87,0.5,0.42,1.07c-3.96,5.05-8.24,9.7-14.63,11.73c-4.45,1.42-9.02,1.66-13.61,1.34
		c-3.12-0.22-6.2-0.89-9.3-1.37c-0.32-0.05-0.62-0.18-0.93-0.29C163.68,124.66,163.61,124.56,163.36,124.34z"/>
	<path class="st0" d="M61.35,88.1c-0.45,0.11-0.64,0.2-0.83,0.21c-4.09,0.09-8.16-0.13-12.16-1.08c-6.24-1.48-10.04-6.72-9.51-13.11
		c0.17-2.05,0.34-4.1,0.56-6.14c0.04-0.38,0.33-0.72,0.51-1.09c0.3,0.24,0.65,0.43,0.88,0.71c3.27,4.04,6.51,8.11,9.78,12.15
		c2.63,3.24,5.84,5.78,9.57,7.66C60.49,87.58,60.81,87.78,61.35,88.1z"/>
	<path class="st0" d="M33.64,108.83c-1.78,1.44-3.55,2.88-5.41,4.38c9.12,8.26,20.31,10.18,31.83,11.15
		c0.02,0.09,0.03,0.18,0.05,0.27c-0.47,0.17-0.93,0.43-1.42,0.51c-5.22,0.88-10.47,1.38-15.75,0.7
		c-8.64-1.11-15.53-5.33-20.98-12.02c-0.89-1.1-0.86-1.34,0.49-1.83c3.25-1.19,6.53-2.28,9.8-3.38c0.38-0.13,0.81-0.11,1.21-0.16
		C33.53,108.58,33.58,108.7,33.64,108.83z"/>
</g>
<g class="st1">
	<path class="st0" d="M37.45,173.33c-0.8,0-0.91,0.53-1.46,0.53c-0.52,0-0.86-0.33-1.05-1.52c-0.22-1.33-0.44-2.6-0.55-4.03
		c-0.03-0.75,0.11-1.21,0.64-1.21c0.5,0,0.72,0.33,1.22,1.16c0.8,1.55,2.43,3.78,5.55,3.78c2.04,0,2.9-1.24,2.96-2.54
		c0.06-1.91-2.26-2.93-4.58-4.12c-3.01-1.52-5.47-2.62-5.47-5.88c0-3.01,2.82-5.5,6.9-5.5c1.35,0,2.49,0.39,3.12,0.39
		c0.69,0,0.86-0.39,1.41-0.39c0.5,0,0.8,0.28,1.05,1.46c0.22,0.97,0.44,2.1,0.55,3.31c0.06,0.75-0.11,1.22-0.69,1.22
		c-0.44,0-0.77-0.36-1.3-1.16c-0.91-1.35-2.4-3.09-4.56-3.09c-1.77,0-2.73,0.99-2.73,2.38c0,1.77,1.57,2.62,4.45,4.09
		c3.18,1.6,5.8,2.68,5.83,5.77c0.06,3.7-3.51,5.86-7.24,5.86C39.41,173.83,38.2,173.33,37.45,173.33z"/>
	<path class="st0" d="M65.12,169.08c-0.06,1.52-0.19,2.57-0.41,3.34c-0.22,0.83-0.64,1.16-2.32,1.16H52.34
		c-1.1,0-1.55-0.17-1.55-0.77c0-1.44,1.82-0.33,1.82-3.92v-10.03c0-3.29-1.77-2.51-1.77-3.84c0-0.58,0.39-0.77,1.55-0.77h4.39
		c1.08,0,1.52,0.19,1.52,0.77c0,1.33-1.8,0.55-1.8,3.84v11.71c0,0.88,0.39,1.27,2.13,1.27l1.24-0.03c1.93,0,2.51-1.02,3.42-2.96
		c0.44-0.94,0.8-1.16,1.24-1.05C65.12,167.92,65.15,168.33,65.12,169.08z"/>
	<path class="st0" d="M65.81,164.66c0-5.91,4.36-10.69,10.27-10.69c5.55,0,9.11,4.06,9.11,9.39c0,5.97-4.28,10.5-10.27,10.5
		C69.68,173.85,65.81,170.04,65.81,164.66z M81.39,165.46c0-4.67-2.51-9.53-6.6-9.53c-3.45,0-5.16,2.98-5.16,6.21
		c0,4.78,2.57,9.53,6.74,9.53C79.87,171.67,81.39,168.85,81.39,165.46z"/>
	<path class="st0" d="M109.15,167.28c0,3.84-3.04,6.3-8.42,6.3h-6.46c-1.1,0-1.55-0.17-1.55-0.77c0-1.44,1.82-0.33,1.82-3.92v-9.94
		c0-3.59-1.82-2.49-1.82-3.92c0-0.61,0.44-0.77,1.55-0.77h5.63c4.14,0,7.04,1.13,7.07,4.2c0.03,1.66-0.88,2.96-2.65,3.56
		C107.44,162.67,109.15,164.66,109.15,167.28z M98.43,160.71c0,0.66,0.8,0.61,1.44,0.61c2.21,0,3.26-0.77,3.26-2.35
		c0-1.66-1.38-2.98-3.54-2.98c-0.69,0-1.16,0.17-1.16,0.88V160.71z M104.92,168c0-2.71-1.91-4.86-5.33-4.86
		c-0.99,0-1.16,0.25-1.16,0.91v5.86c0,1.35,0.33,1.93,2.24,1.93C103.51,171.84,104.92,170.65,104.92,168z"/>
	<path class="st0" d="M112.19,158.58c0-1.91-1.33-1.71-1.33-2.54c0-0.36,0.22-0.55,0.88-0.86c1.13-0.55,3.12-1.22,3.56-1.22
		c0.47,0,0.66,0.25,0.66,0.83l-0.03,3.78v11.16c0,2.57,1.33,1.93,1.33,3.15c0,0.55-0.44,0.69-1.21,0.69h-3.95
		c-0.77,0-1.27-0.17-1.27-0.72c0-1.19,1.38-0.55,1.38-3.12L112.19,158.58z"/>
	<path class="st0" d="M118.79,167.47c0-4.14,3.23-7.43,7.62-7.43c3.81,0,6.43,2.82,6.43,6.49c0,4.17-3.18,7.32-7.57,7.32
		C121.6,173.85,118.79,171.4,118.79,167.47z M129.17,168.47c0-3.2-1.63-6.6-4-6.6c-1.99,0-2.73,1.88-2.73,3.84
		c0,3.23,1.66,6.32,4.03,6.32C128.34,172.03,129.17,170.37,129.17,168.47z"/>
	<path class="st0" d="M134.69,167.47c0-4.14,3.23-7.43,7.62-7.43c3.81,0,6.43,2.82,6.43,6.49c0,4.17-3.18,7.32-7.57,7.32
		C137.51,173.85,134.69,171.4,134.69,167.47z M145.08,168.47c0-3.2-1.63-6.6-4-6.6c-1.99,0-2.73,1.88-2.73,3.84
		c0,3.23,1.66,6.32,4.03,6.32C144.25,172.03,145.08,170.37,145.08,168.47z"/>
	<path class="st0" d="M174.74,170.46c0.33,1.68,1.44,1.46,1.44,2.43c0,0.55-0.44,0.69-1.19,0.69h-3.87c-0.77,0-1.27-0.17-1.27-0.72
		c0-0.91,1.46-0.83,1.11-2.62l-0.86-4.36c-0.33-1.74-0.64-3.45-2.54-3.42c-1.38,0-2.76,1.24-2.76,3.76v3.54
		c0,2.57,1.35,1.93,1.35,3.15c0,0.55-0.47,0.69-1.22,0.69h-3.95c-0.8,0-1.27-0.17-1.27-0.72c0-1.19,1.35-0.55,1.35-3.12v-3.62
		c0-2.04-0.36-3.78-2.35-3.76c-1.49,0.03-2.96,1.41-2.96,3.84v3.54c0,2.57,1.33,1.93,1.33,3.15c0,0.55-0.44,0.69-1.21,0.69h-3.95
		c-0.77,0-1.27-0.17-1.27-0.72c0-1.19,1.38-0.55,1.38-3.12v-5.25c0-0.77-0.3-1.27-0.86-1.68c-0.28-0.19-0.52-0.39-0.52-0.77
		c0-0.44,0.22-0.63,0.88-0.94c1.02-0.5,2.73-0.99,3.18-1.02c0.47,0,0.66,0.28,0.66,0.83v1.79c1.08-1.77,2.79-2.65,4.58-2.65
		c2.24,0,3.65,0.97,4.34,2.65c1.05-1.74,2.71-2.65,4.56-2.65c3.2,0,4.2,2.04,4.94,5.69L174.74,170.46z"/>
	<path class="st0" d="M178.39,172.75c-0.47-1.13-0.77-1.91-1.02-2.84c-0.14-0.61,0.03-0.91,0.36-1.08c0.39-0.19,0.83,0.11,1.44,0.66
		c1.79,1.77,3.34,2.79,4.97,2.79c0.94,0,1.6-0.53,1.6-1.33c0-0.99-1.44-1.74-3.84-2.76c-2.13-0.91-4.14-1.99-4.14-4.28
		c0-2.65,2.46-3.87,4.61-3.87c1.55,0,2.49,0.36,3.29,0.39c0.58,0,0.66-0.39,1.16-0.39c0.44,0,0.63,0.3,1.08,1.08
		c0.36,0.69,0.52,1.08,0.77,1.66c0.28,0.75,0.17,1.13-0.19,1.3c-0.53,0.28-0.99-0.22-1.88-0.86c-1.08-0.77-2.49-1.58-3.7-1.58
		c-1.13,0-1.68,0.61-1.68,1.27c0,0.97,1.16,1.55,3.42,2.51c2.93,1.3,4.81,2.4,4.81,4.39c0,2.4-2.29,4.03-5.19,4.03
		c-2.18,0-3.15-0.55-3.73-0.55c-0.41,0-0.55,0.55-1.08,0.55C178.94,173.85,178.75,173.63,178.39,172.75z"/>
</g>
</svg>
