<?xml version="1.0" encoding="UTF-8"?>
<svg id="Layer_1" data-name="Layer 1" xmlns="http://www.w3.org/2000/svg" viewBox="0 0 493 100.3">
  <defs>
    <style>
      .cls-1 {
        fill: #000;
        stroke-width: 0px;
      }
    </style>
  </defs>
  <path class="cls-1" d="M76.3,60.1c0,17.8-13.4,32.6-31.4,32.6s-31.4-12.5-31.4-31.8,13.3-32.5,31.6-32.7c19.6,0,31.2,13.8,31.2,31.9ZM43.9,35.5c-8.7,0-14.7,7.5-14.7,20.6s5.9,29,17,29,14.6-9.2,14.6-21.2-5.1-28.3-16.9-28.3h0v-.1Z"/>
  <path class="cls-1" d="M156.1,88.6c0,1.9-1.8,2.7-4,2.7h-22.8c-2.1,0-3.9-.8-3.9-2.7s1.2-2.1,2.5-3c1.9-1.2,3.3-2.6,4.2-4.3s1.4-4.3,1.4-12.6v-16.6c0-8.1-4.3-12.8-11.2-12.8s-6.3,1-8.9,3.6c-4.3,4.3-5.5,10.7-5.5,25.9s.6,10.9,1.4,12.6c.8,1.8,2.2,3.2,4,4.3,1.5.9,2.5,1.5,2.5,3s-1.7,2.7-3.9,2.7h-22.5c-2.2,0-3.9-.8-3.9-2.7s1.2-2.1,2.5-3c1.7-1.1,3.3-2.5,4.2-4.3.7-1.7,1.3-4.3,1.3-12.6v-18.2c0-4.3,0-6.9-.9-8.8-.8-1.7-2.1-2.5-4.2-3.2-1.2-.5-3.3-1.1-3.3-2.8s.9-2.4,3.7-3c4-.8,8.5-2,11.6-3.3,1.8-.7,3-1.4,4.6-1.4s3,.8,3,3.6v6.6c0,.4.1.6.5.6s.4-.2.6-.6c4.3-6.3,11-10.2,19.2-10.2s12.6,2.7,16.1,8c2.6,3.9,3.7,8.7,3.7,16v16.7c0,8.3.6,10.9,1.4,12.6s2.1,3.2,4,4.3c1.5.8,2.6,1.5,2.6,3h0v-.1Z"/>
  <path class="cls-1" d="M267.4,34.9c-1.5,1-3.7,1.9-6.4,5.7-1.8,2.6-3.7,6.3-5.7,11.5-2.4,6-12.2,32.7-14.5,38.9-.4.9-.8,1.2-1.8,1.2h-9.7c-.9,0-1.4-.4-1.7-1.1l-15.1-44.2c-.1-.4-.2-.4-.4-.4s-.2,0-.4.4l-15.9,44.1c-.4.8-.8,1.2-1.8,1.2h-10c-1.2,0-1.7-.2-2-1.2l-13.8-44c-1.4-4.6-2.6-8.1-4.8-9.9-1.3-1.2-2.7-1.7-4-2.4-1.3-.7-2.1-1.3-2.1-2.7s1.2-2.6,4.3-2.6h22.7c2.1,0,3.7,1,3.7,2.5s-.9,2-1.9,2.6c-2.2,1.4-3.7,2.7-3.7,5.7s.5,3.8,1.3,6.6l8.8,28.1c.1.2.1.4.4.4s.4,0,.5-.4l16.1-45.3c.2-.7.8-1.1,1.9-1.1h9c1.1,0,1.7.2,1.9,1.1l15.4,45.3c.1.4.2.5.5.5s.4-.1.5-.5l7-20c2.4-6.8,3.3-10.8,3.3-13.5s-1.7-5.1-4.4-6.9c-.9-.6-1.7-1.2-1.7-2.5,0-1.9,1.9-2.6,4.1-2.6h18.1c2.9,0,4.1,1,4.1,2.6s-.9,2.1-2.1,2.9h.3Z"/>
  <path class="cls-1" d="M329.6,85.3c0,.8-.2,1.7-.8,2.5-1.9,2.8-5.9,4.9-10.2,4.9s-9.2-2.6-10.4-9.6c0-.1-.5-.1-.5-.1-4.5,6.6-12.2,9.7-19.5,9.7s-18.6-5.6-18.6-15.5,2.6-10.4,8-13.8c6-3.8,13.9-5.5,19.8-8.2,6.5-3.1,9.5-6.5,9.5-11s-1.9-6.8-6.2-8c-1-.2-1.9-.4-3-.4-2.9,0-5.9,1-8.7,3.2-3.8,3.2-5.5,7-7.1,8.9-1,1.2-1.9,1.7-3.7,1.7-3.1,0-3.9-2.7-3.9-6.6s.6-7,2.1-8.9c1.7-2.1,5.2-3.7,9.4-4.6,3.4-.8,8-1.3,11.9-1.3,14.5,0,24.7,8.1,24.7,20.3s-.5,17.8-.5,25.2.7,9.5,3.3,9.5,1.3-.1,2-.1c1.5,0,2.4,1.1,2.4,2.4h0v-.2ZM306.9,59.1c0-.2-.1-.4-.4-.4s-.4.1-.4.1c-3.9,2.8-10.4,4.5-15.4,8-3.8,2.6-5.2,5.9-5.2,8.9,0,5,3.7,7.9,8.3,7.9s8.7-2.4,11-7.1c1.9-4,2-8.3,2-15.1v-2.4h0l.1.1Z"/>
  <path class="cls-1" d="M385.4,37.9c0,3.7-1.7,6.3-4.8,6.3s-2.9-.6-4.5-1.5-2.9-1.4-4.4-1.4-3.6.8-5.2,2.5c-2.6,2.6-6,7.2-6,25.3s.6,10.8,1.4,12.6c.8,1.8,2.2,3.1,4,4.2,1.5.9,2.5,1.7,2.5,3.1s-1.7,2.6-3.9,2.6h-22.7c-2.3,0-3.9-.8-3.9-2.6s1.1-2.3,2.5-3.1c1.8-1.1,3.2-2.4,4-4.2s1.4-4.4,1.4-12.6v-18.4c0-4.3-.2-6.9-1.2-8.7-.8-1.5-1.9-2.4-4-3.2-1.3-.5-3.3-1.2-3.3-2.8s1.1-2.5,3.6-3.1c4.6-1.1,8.3-2,12.6-3.9,1.3-.6,2-.7,2.9-.7,1.8,0,3.1,1.1,3.1,3.6v9.2c0,.2,0,.5.2.5s.1-.1.2-.4c2.6-5.7,9.4-12.9,16.7-12.9s5,1,6.4,2.5c1.8,1.9,2.4,4.9,2.4,7.2h0v-.1Z"/>
  <path class="cls-1" d="M455.2,85c0,1.5-.8,2.3-3.7,3-4.9,1.2-9.9,2.6-13.8,4.2-.7.2-1.5.6-2.6.6s-2.7-.8-2.7-3.6v-5.6c0-.8-.4-1.1-.8-1.1s-.6.1-1,.6c-4.6,5.7-11.5,9.6-19.1,9.6s-7-.8-10.6-2.6c-9.7-5-13.9-15.5-13.9-26.3,0-19,12.1-35.6,29.7-35.6s10.2,1.4,14.7,3.8c.2.1.4.1.5.1.2,0,.5-.2.5-.6v-6.2c0-4.3-.1-6.9-1.1-8.8-.7-1.4-1.8-2.4-4-3.2-1.7-.6-3.3-1.3-3.3-2.8s.8-2.2,3.6-3c5-1.2,9-2.4,12.5-3.7,2-.7,2.7-1.1,4-1.1s2.7.8,2.7,3.6v63.8c0,4.3,0,7,1,8.8.8,1.5,2.1,2.4,4.1,3.2,1.5.6,3.3,1.4,3.3,2.8h0v.1ZM432.4,59.5c0-15.2-6.3-23.7-15.2-23.7s-15.1,9-15.1,23,6,23.2,15.4,23.2,14.8-6.6,14.8-22.5h.1Z"/>
</svg>