<?xml version="1.0" encoding="UTF-8"?>
<svg id="Layer_1" data-name="Layer 1" xmlns="http://www.w3.org/2000/svg" viewBox="0 0 441.66 89.92">
  <defs>
    <style>
      .cls-1 {
        fill: #000;
        stroke-width: 0px;
      }
    </style>
  </defs>
  <path class="cls-1" d="M62.76,57.3c0,17.79-13.41,32.62-31.44,32.62S0,77.47,0,58.13C0,40.22,13.29,25.62,31.56,25.39c19.57,0,31.2,13.76,31.2,31.91ZM30.37,32.74c-8.66,0-14.71,7.47-14.71,20.64,0,15.07,5.93,28.95,16.96,28.95,9.49,0,14.59-9.25,14.59-21.24,0-13.29-5.1-28.35-16.85-28.35Z"/>
  <path class="cls-1" d="M142.59,85.89c0,1.9-1.78,2.73-4.03,2.73h-22.78c-2.14,0-3.91-.83-3.91-2.73,0-1.42,1.19-2.14,2.49-2.97,1.9-1.19,3.32-2.61,4.15-4.27s1.42-4.27,1.42-12.57v-16.61c0-8.07-4.27-12.81-11.15-12.81-2.97,0-6.29.95-8.9,3.56-4.27,4.27-5.46,10.68-5.46,25.86,0,8.3.59,10.91,1.42,12.57.83,1.78,2.25,3.2,4.03,4.27,1.54.95,2.49,1.54,2.49,2.97,0,1.9-1.66,2.73-3.91,2.73h-22.54c-2.25,0-3.91-.83-3.91-2.73,0-1.42,1.19-2.14,2.49-2.97,1.66-1.07,3.32-2.49,4.15-4.27.71-1.66,1.3-4.27,1.3-12.57v-18.15c0-4.27,0-6.88-.95-8.78-.83-1.66-2.14-2.49-4.15-3.2-1.19-.47-3.32-1.07-3.32-2.85,0-1.42.95-2.37,3.68-2.97,4.03-.83,8.54-2.02,11.63-3.32,1.78-.71,2.97-1.42,4.63-1.42s2.97.83,2.97,3.56v6.64c0,.36.12.59.47.59.24,0,.36-.24.59-.59,4.27-6.29,11.03-10.2,19.22-10.2,6.53,0,12.57,2.73,16.13,7.95,2.61,3.91,3.68,8.66,3.68,16.02v16.73c0,8.3.59,10.91,1.42,12.57s2.14,3.2,4.03,4.27c1.54.83,2.61,1.54,2.61,2.97Z"/>
  <path class="cls-1" d="M253.87,32.15c-1.54.95-3.68,1.9-6.41,5.69-1.78,2.61-3.68,6.29-5.69,11.51-2.37,6.05-12.22,32.74-14.47,38.91-.36.95-.83,1.19-1.78,1.19h-9.73c-.95,0-1.42-.36-1.66-1.07l-15.07-44.25c-.12-.36-.24-.36-.36-.36s-.24,0-.36.36l-15.9,44.13c-.36.83-.83,1.19-1.78,1.19h-9.96c-1.19,0-1.66-.24-2.02-1.19l-13.76-44.01c-1.42-4.63-2.61-8.07-4.75-9.85-1.31-1.19-2.73-1.66-4.03-2.37-1.31-.71-2.14-1.3-2.14-2.73,0-1.54,1.19-2.61,4.27-2.61h22.66c2.14,0,3.68.95,3.68,2.49,0,1.31-.95,2.02-1.9,2.61-2.25,1.42-3.68,2.73-3.68,5.69,0,1.66.47,3.8,1.31,6.64l8.78,28.12c.12.24.12.36.36.36s.36,0,.47-.36l16.13-45.32c.24-.71.83-1.07,1.9-1.07h9.02c1.07,0,1.66.24,1.9,1.07l15.42,45.32c.12.36.24.47.47.47s.36-.12.47-.47l7-20.05c2.37-6.76,3.32-10.8,3.32-13.52,0-3.8-1.66-5.1-4.39-6.88-.95-.59-1.66-1.19-1.66-2.49,0-1.9,1.9-2.61,4.15-2.61h18.15c2.85,0,4.15.95,4.15,2.61,0,1.3-.95,2.14-2.14,2.85Z"/>
  <path class="cls-1" d="M316.15,82.57c0,.83-.24,1.66-.83,2.49-1.9,2.85-5.93,4.86-10.2,4.86-4.51,0-9.25-2.61-10.44-9.61,0-.12-.47-.12-.47-.12-4.51,6.64-12.22,9.73-19.45,9.73-9.61,0-18.62-5.58-18.62-15.54,0-5.1,2.61-10.44,7.95-13.76,6.05-3.8,13.88-5.46,19.81-8.19,6.53-3.08,9.49-6.52,9.49-11.03,0-3.44-1.9-6.76-6.17-7.95-.95-.24-1.9-.36-2.97-.36-2.85,0-5.93.95-8.66,3.2-3.8,3.2-5.46,7-7.12,8.9-.95,1.19-1.9,1.66-3.68,1.66-3.08,0-3.91-2.73-3.91-6.64,0-3.08.59-7,2.14-8.9,1.66-2.14,5.22-3.68,9.37-4.63,3.44-.83,7.95-1.31,11.86-1.31,14.47,0,24.68,8.07,24.68,20.29,0,8.54-.47,17.79-.47,25.15,0,6.17.71,9.49,3.32,9.49.59,0,1.3-.12,2.02-.12,1.54,0,2.37,1.07,2.37,2.37ZM293.38,56.35c0-.24-.12-.36-.36-.36s-.36.12-.36.12c-3.91,2.85-10.44,4.51-15.42,7.95-3.8,2.61-5.22,5.93-5.22,8.9,0,4.98,3.68,7.95,8.3,7.95,4.15,0,8.66-2.37,11.03-7.12,1.9-4.03,2.02-8.3,2.02-15.07v-2.37Z"/>
  <path class="cls-1" d="M371.91,35.11c0,3.68-1.66,6.29-4.75,6.29-1.54,0-2.85-.59-4.51-1.54s-2.85-1.42-4.39-1.42c-1.78,0-3.56.83-5.22,2.49-2.61,2.61-6.05,7.24-6.05,25.27,0,8.31.59,10.8,1.42,12.58.83,1.78,2.25,3.08,4.03,4.15,1.54.95,2.49,1.66,2.49,3.09,0,1.78-1.66,2.61-3.91,2.61h-22.66c-2.26,0-3.91-.83-3.91-2.61,0-1.42,1.07-2.26,2.49-3.09,1.78-1.07,3.2-2.37,4.03-4.15.83-1.78,1.42-4.39,1.42-12.58v-18.39c0-4.27-.24-6.88-1.19-8.66-.83-1.54-1.9-2.37-4.03-3.2-1.31-.47-3.32-1.19-3.32-2.85,0-1.54,1.07-2.49,3.56-3.08,4.63-1.07,8.3-2.02,12.58-3.91,1.3-.59,2.02-.71,2.85-.71,1.78,0,3.08,1.07,3.08,3.56v9.25c0,.24,0,.47.24.47.12,0,.12-.12.24-.36,2.61-5.69,9.37-12.93,16.73-12.93,2.85,0,4.98.95,6.41,2.49,1.78,1.9,2.37,4.86,2.37,7.24Z"/>
  <path class="cls-1" d="M441.66,82.21c0,1.54-.83,2.26-3.68,2.97-4.86,1.19-9.85,2.61-13.76,4.15-.71.24-1.54.59-2.61.59-1.42,0-2.73-.83-2.73-3.56v-5.58c0-.83-.36-1.07-.83-1.07-.24,0-.59.12-.95.59-4.63,5.69-11.51,9.61-19.1,9.61-3.44,0-7-.83-10.56-2.61-9.73-4.98-13.88-15.54-13.88-26.34,0-18.98,12.1-35.59,29.66-35.59,5.1,0,10.2,1.42,14.71,3.8.24.12.36.12.47.12.24,0,.47-.24.47-.59v-6.17c0-4.27-.12-6.88-1.07-8.78-.71-1.42-1.78-2.37-4.03-3.2-1.66-.59-3.32-1.31-3.32-2.85s.83-2.25,3.56-2.97c4.98-1.19,9.02-2.37,12.46-3.68,2.02-.71,2.73-1.07,4.03-1.07,1.54,0,2.73.83,2.73,3.56v63.82c0,4.27,0,7,.95,8.78.83,1.54,2.14,2.37,4.15,3.2,1.54.59,3.32,1.42,3.32,2.85ZM418.88,56.71c0-15.18-6.29-23.73-15.18-23.73-9.61,0-15.07,9.02-15.07,23.01s6.05,23.25,15.42,23.25c7.95,0,14.83-6.64,14.83-22.54Z"/>
</svg>